<svg viewBox="0 0 30 30" fill="none" xmlns="http://www.w3.org/2000/svg">
<path d="M30 15C30 6.71573 23.2843 0 15 0C6.71573 0 0 6.71573 0 15C0 23.2843 6.71573 30 15 30C23.2843 30 30 23.2843 30 15Z" fill="white"/>
<path d="M20.2913 22.9899L19.056 21.5235C20.4168 21.2053 21.6094 20.3894 22.3992 19.2364C19.3498 22.1102 11.0221 22.2276 7.79626 19.2364C8.5721 20.3771 9.74146 21.1914 11.0804 21.5235L9.73127 22.9899C8.62368 23.0343 7.5227 22.7997 6.52938 22.3078C5.53606 21.8158 4.68223 21.0822 4.04626 20.1743C4.09853 16.361 5.02111 12.6101 6.74362 9.20758C8.28404 8.0753 10.1146 7.40422 12.0219 7.27258L12.1983 7.50729C10.3974 7.91454 8.72509 8.76083 7.33038 9.97082C11.3186 7.27346 19.5289 7.50729 22.7539 9.97082C21.2831 8.77497 19.5577 7.93221 17.7104 7.50729L18.0033 7.27258C19.9106 7.40422 21.7411 8.0753 23.2816 9.20758C25.0041 12.6101 25.9267 16.361 25.9789 20.1743C25.3427 21.0826 24.4884 21.8164 23.4946 22.3084C22.5008 22.8004 21.3993 23.0348 20.2913 22.9899Z" fill="#272727"/>
<path d="M11.4708 16.7646C12.4454 16.7646 13.2355 15.9746 13.2355 14.9999C13.2355 14.0253 12.4454 13.2352 11.4708 13.2352C10.4961 13.2352 9.70605 14.0253 9.70605 14.9999C9.70605 15.9746 10.4961 16.7646 11.4708 16.7646Z" fill="white"/>
<path d="M18.5296 16.7646C19.5042 16.7646 20.2943 15.9746 20.2943 14.9999C20.2943 14.0253 19.5042 13.2352 18.5296 13.2352C17.555 13.2352 16.7649 14.0253 16.7649 14.9999C16.7649 15.9746 17.555 16.7646 18.5296 16.7646Z" fill="white"/>
</svg>