<svg viewBox="0 0 22 22" xmlns="http://www.w3.org/2000/svg">
<path d="M10.9993 21.0834C5.43032 21.0834 0.916016 16.5691 0.916016 11.0001C0.916016 5.43106 5.43032 0.916748 10.9993 0.916748C16.5684 0.916748 21.0827 5.43106 21.0827 11.0001C21.0827 16.5691 16.5684 21.0834 10.9993 21.0834ZM10.9993 19.0667C13.1388 19.0667 15.1906 18.2169 16.7033 16.7041C18.2161 15.1913 19.066 13.1395 19.066 11.0001C19.066 8.86067 18.2161 6.80888 16.7033 5.29609C15.1906 3.78329 13.1388 2.93341 10.9993 2.93341C8.85994 2.93341 6.80815 3.78329 5.29535 5.29609C3.78256 6.80888 2.93268 8.86067 2.93268 11.0001C2.93268 13.1395 3.78256 15.1913 5.29535 16.7041C6.80815 18.2169 8.85994 19.0667 10.9993 19.0667ZM9.99102 14.0251H12.0077V16.0417H9.99102V14.0251ZM9.99102 5.95842H12.0077V12.0084H9.99102V5.95842Z"/>
</svg>