<svg width="24" height="24" viewBox="0 0 24 24" fill="none" xmlns="http://www.w3.org/2000/svg">
<path d="M19.5 16.5C18.9703 16.5026 18.4515 16.6505 18 16.9275L15.6825 14.6025C16.2218 13.8418 16.5114 12.9324 16.5114 12C16.5114 11.0676 16.2218 10.1582 15.6825 9.3975L18 7.0725C18.4515 7.34955 18.9703 7.49741 19.5 7.5C20.0933 7.5 20.6734 7.32405 21.1667 6.99441C21.6601 6.66477 22.0446 6.19623 22.2716 5.64805C22.4987 5.09987 22.5581 4.49667 22.4424 3.91473C22.3266 3.33279 22.0409 2.79824 21.6213 2.37868C21.2018 1.95912 20.6672 1.6734 20.0853 1.55765C19.5033 1.44189 18.9001 1.5013 18.352 1.72836C17.8038 1.95543 17.3352 2.33994 17.0056 2.83329C16.676 3.32664 16.5 3.90666 16.5 4.5C16.5026 5.0297 16.6505 5.54853 16.9275 6L14.6025 8.3175C13.8418 7.77825 12.9324 7.4886 12 7.4886C11.0676 7.4886 10.1582 7.77825 9.3975 8.3175L7.0725 6C7.34955 5.54853 7.49741 5.0297 7.5 4.5C7.5 3.90666 7.32405 3.32664 6.99441 2.83329C6.66477 2.33994 6.19623 1.95543 5.64805 1.72836C5.09987 1.5013 4.49667 1.44189 3.91473 1.55765C3.33279 1.6734 2.79824 1.95912 2.37868 2.37868C1.95912 2.79824 1.6734 3.33279 1.55765 3.91473C1.44189 4.49667 1.5013 5.09987 1.72836 5.64805C1.95543 6.19623 2.33994 6.66477 2.83329 6.99441C3.32664 7.32405 3.90666 7.5 4.5 7.5C5.0297 7.49741 5.54853 7.34955 6 7.0725L8.3175 9.3975C7.77825 10.1582 7.4886 11.0676 7.4886 12C7.4886 12.9324 7.77825 13.8418 8.3175 14.6025L6 16.9275C5.54853 16.6505 5.0297 16.5026 4.5 16.5C3.90666 16.5 3.32664 16.676 2.83329 17.0056C2.33994 17.3352 1.95543 17.8038 1.72836 18.352C1.5013 18.9001 1.44189 19.5033 1.55765 20.0853C1.6734 20.6672 1.95912 21.2018 2.37868 21.6213C2.79824 22.0409 3.33279 22.3266 3.91473 22.4424C4.49667 22.5581 5.09987 22.4987 5.64805 22.2716C6.19623 22.0446 6.66477 21.6601 6.99441 21.1667C7.32405 20.6734 7.5 20.0933 7.5 19.5C7.49741 18.9703 7.34955 18.4515 7.0725 18L9.3975 15.6825C10.1582 16.2218 11.0676 16.5114 12 16.5114C12.9324 16.5114 13.8418 16.2218 14.6025 15.6825L16.9275 18C16.6505 18.4515 16.5026 18.9703 16.5 19.5C16.5 20.0933 16.676 20.6734 17.0056 21.1667C17.3352 21.6601 17.8038 22.0446 18.352 22.2716C18.9001 22.4987 19.5033 22.5581 20.0853 22.4424C20.6672 22.3266 21.2018 22.0409 21.6213 21.6213C22.0409 21.2018 22.3266 20.6672 22.4424 20.0853C22.5581 19.5033 22.4987 18.9001 22.2716 18.352C22.0446 17.8038 21.6601 17.3352 21.1667 17.0056C20.6734 16.676 20.0933 16.5 19.5 16.5ZM19.5 3C19.7967 3 20.0867 3.08797 20.3334 3.2528C20.58 3.41762 20.7723 3.65189 20.8858 3.92598C20.9994 4.20007 21.0291 4.50167 20.9712 4.79264C20.9133 5.08361 20.7704 5.35088 20.5607 5.56066C20.3509 5.77044 20.0836 5.9133 19.7926 5.97118C19.5017 6.02906 19.2001 5.99935 18.926 5.88582C18.6519 5.77229 18.4176 5.58003 18.2528 5.33336C18.088 5.08668 18 4.79667 18 4.5C18 4.10218 18.158 3.72065 18.4393 3.43934C18.7206 3.15804 19.1022 3 19.5 3ZM3 4.5C3 4.20333 3.08797 3.91332 3.2528 3.66665C3.41762 3.41997 3.65189 3.22771 3.92598 3.11418C4.20007 3.00065 4.50167 2.97095 4.79264 3.02882C5.08361 3.0867 5.35088 3.22956 5.56066 3.43934C5.77044 3.64912 5.9133 3.91639 5.97118 4.20737C6.02906 4.49834 5.99935 4.79994 5.88582 5.07403C5.77229 5.34812 5.58003 5.58238 5.33336 5.74721C5.08668 5.91203 4.79667 6 4.5 6C4.10218 6 3.72065 5.84197 3.43934 5.56066C3.15804 5.27936 3 4.89783 3 4.5ZM4.5 21C4.20333 21 3.91332 20.912 3.66665 20.7472C3.41997 20.5824 3.22771 20.3481 3.11418 20.074C3.00065 19.7999 2.97095 19.4983 3.02882 19.2074C3.0867 18.9164 3.22956 18.6491 3.43934 18.4393C3.64912 18.2296 3.91639 18.0867 4.20737 18.0288C4.49834 17.9709 4.79994 18.0007 5.07403 18.1142C5.34812 18.2277 5.58238 18.42 5.74721 18.6666C5.91203 18.9133 6 19.2033 6 19.5C6 19.8978 5.84197 20.2794 5.56066 20.5607C5.27936 20.842 4.89783 21 4.5 21ZM12 15C11.4067 15 10.8266 14.8241 10.3333 14.4944C9.83994 14.1648 9.45543 13.6962 9.22836 13.1481C9.0013 12.5999 8.94189 11.9967 9.05765 11.4147C9.1734 10.8328 9.45912 10.2982 9.87868 9.87868C10.2982 9.45912 10.8328 9.1734 11.4147 9.05765C11.9967 8.94189 12.5999 9.0013 13.1481 9.22836C13.6962 9.45543 14.1648 9.83994 14.4944 10.3333C14.8241 10.8266 15 11.4067 15 12C15 12.7957 14.6839 13.5587 14.1213 14.1213C13.5587 14.6839 12.7957 15 12 15ZM19.5 21C19.2033 21 18.9133 20.912 18.6666 20.7472C18.42 20.5824 18.2277 20.3481 18.1142 20.074C18.0007 19.7999 17.9709 19.4983 18.0288 19.2074C18.0867 18.9164 18.2296 18.6491 18.4393 18.4393C18.6491 18.2296 18.9164 18.0867 19.2074 18.0288C19.4983 17.9709 19.7999 18.0007 20.074 18.1142C20.3481 18.2277 20.5824 18.42 20.7472 18.6666C20.912 18.9133 21 19.2033 21 19.5C21 19.8978 20.842 20.2794 20.5607 20.5607C20.2794 20.842 19.8978 21 19.5 21Z" fill="#1D1D1D"/>
</svg>
