<svg viewBox="0 0 24 24" xmlns="http://www.w3.org/2000/svg">
<path d="M21 10.9751V8.00013C21 7.46969 20.7893 6.96098 20.4142 6.58591C20.0391 6.21084 19.5304 6.00013 19 6.00013H13V4.68813C13.305 4.41413 13.5 4.02013 13.5 3.57813C13.5 3.1803 13.342 2.79877 13.0607 2.51746C12.7794 2.23616 12.3978 2.07813 12 2.07812C11.6022 2.07813 11.2206 2.23616 10.9393 2.51746C10.658 2.79877 10.5 3.1803 10.5 3.57813C10.5 4.02013 10.695 4.41413 11 4.68813V6.00013H5C4.46957 6.00013 3.96086 6.21084 3.58579 6.58591C3.21071 6.96098 3 7.46969 3 8.00013V10.9981L2.928 11.0031C2.67589 11.0211 2.43996 11.1339 2.26775 11.319C2.09554 11.504 1.99987 11.7474 2 12.0001V14.0001C2 14.2653 2.10536 14.5197 2.29289 14.7072C2.48043 14.8948 2.73478 15.0001 3 15.0001V20.0001C3 20.5306 3.21071 21.0393 3.58579 21.4143C3.96086 21.7894 4.46957 22.0001 5 22.0001H19C19.5304 22.0001 20.0391 21.7894 20.4142 21.4143C20.7893 21.0393 21 20.5306 21 20.0001V15.0001C21.2652 15.0001 21.5196 14.8948 21.7071 14.7072C21.8946 14.5197 22 14.2653 22 14.0001V12.0621C22.0116 11.9069 21.9869 11.7512 21.928 11.6071C21.726 11.1191 21.293 11.0021 21 10.9751ZM7 12.0001C7 10.8961 7.672 10.0001 8.5 10.0001C9.328 10.0001 10 10.8961 10 12.0001C10 13.1041 9.328 14.0001 8.5 14.0001C7.672 14.0001 7 13.1041 7 12.0001ZM15.998 18.0001C14.997 17.9971 8.001 18.0001 8 18.0001V16.0001C8 16.0001 15.001 15.9981 16.002 16.0001L15.998 18.0001ZM15.5 14.0001C14.672 14.0001 14 13.1041 14 12.0001C14 10.8961 14.672 10.0001 15.5 10.0001C16.328 10.0001 17 10.8961 17 12.0001C17 13.1041 16.328 14.0001 15.5 14.0001Z"/>
</svg>
