<svg width="16" height="14" viewBox="0 0 16 14" fill="none" xmlns="http://www.w3.org/2000/svg">
<path d="M15.147 0.968317C14.9699 0.844441 14.7702 0.756658 14.5592 0.709982C14.3483 0.663306 14.1302 0.658651 13.9174 0.696284C13.7046 0.733917 13.5013 0.8131 13.3192 0.92931C13.137 1.04552 12.9795 1.19648 12.8557 1.37357L6.60072 10.3066L2.49947 7.50507C2.17054 7.28006 1.76569 7.19494 1.374 7.26844C0.982304 7.34193 0.635848 7.56801 0.410845 7.89694C0.185842 8.22588 0.100723 8.63072 0.174214 9.02241C0.247705 9.41411 0.473785 9.76056 0.80272 9.98557L6.30022 13.7406C6.46954 13.8561 6.66088 13.9355 6.86229 13.9738C7.06369 14.012 7.27082 14.0083 7.47072 13.9628C7.68393 13.9255 7.88769 13.8466 8.07032 13.7304C8.25295 13.6142 8.41085 13.4631 8.53497 13.2858L15.5525 3.26082C15.8026 2.90284 15.9003 2.46022 15.8242 2.03021C15.7482 1.6002 15.5045 1.21799 15.1467 0.967567" fill="#04AB5B"/>
</svg>
