<svg width="16" height="16" viewBox="0 0 16 16" fill="none" xmlns="http://www.w3.org/2000/svg">
<path d="M12.6079 0.997301C11.1573 2.44878 9.70412 3.90052 8.25502 5.35225C6.80339 3.90128 5.35175 2.44954 3.89961 0.997301C2.21992 -0.68145 -0.382659 1.92212 1.29627 3.60087C2.7474 5.05109 4.19979 6.50358 5.64914 7.95329C4.19878 9.40426 2.74663 10.8565 1.29627 12.3082C-0.382659 13.9865 2.22119 16.5893 3.89961 14.9116C5.35074 13.4598 6.80237 12.0083 8.25502 10.5566C9.70666 12.0083 11.1573 13.4593 12.6079 14.9116C14.2871 16.5895 16.8899 13.9865 15.2123 12.3085C13.7604 10.8568 12.3087 9.40578 10.8568 7.95354C12.309 6.50206 13.7606 5.05032 15.2123 3.59859C16.8899 1.92035 14.2871 -0.683228 12.6079 0.995523" fill="#EC0B2B"/>
</svg>
