<svg viewBox="0 0 509.142 509.142" xmlns="http://www.w3.org/2000/svg">
<path id="XMLID_291_" d="m376.216 16.418c-32.711-10.587-75.912-16.418-121.645-16.418s-88.935 5.831-121.646 16.418c-48.643 15.745-58.854 37.049-58.854 52.148v372.009c0 15.1 10.211 36.404 58.854 52.148 32.711 10.587 75.912 16.418 121.646 16.418s88.935-5.831 121.646-16.418c48.644-15.745 58.854-37.049 58.854-52.148v-372.009c0-15.099-10.211-36.403-58.855-52.148zm-234.052 28.542c29.806-9.647 69.726-14.96 112.407-14.96s82.601 5.313 112.407 14.96c31.095 10.064 38.093 20.68 38.093 23.606s-6.998 13.542-38.093 23.606c-29.807 9.647-69.727 14.96-112.407 14.96s-82.601-5.313-112.407-14.96c-31.095-10.064-38.093-20.68-38.093-23.606s6.998-13.542 38.093-23.606zm224.814 419.221c-29.807 9.647-69.727 14.96-112.407 14.96s-82.601-5.313-112.407-14.96c-31.095-10.064-38.093-20.681-38.093-23.606v-83.927c7.655 4.277 17.128 8.397 28.854 12.192 32.711 10.587 75.912 16.418 121.646 16.418s88.935-5.831 121.646-16.418c11.726-3.795 21.2-7.916 28.854-12.192v83.927c0 2.925-6.998 13.542-38.093 23.606zm38.093-147.489c0 2.925-6.998 13.542-38.093 23.606-29.807 9.647-69.727 14.96-112.407 14.96s-82.601-5.313-112.407-14.96c-31.095-10.064-38.093-20.681-38.093-23.606v-.392-83.504c7.655 4.277 17.128 8.397 28.854 12.192 32.711 10.587 75.912 16.418 121.646 16.418s88.935-5.831 121.646-16.418c11.726-3.795 21.2-7.916 28.854-12.192v83.504zm0-123.851c0 2.925-6.998 13.542-38.093 23.606-29.807 9.647-69.727 14.96-112.407 14.96s-82.601-5.313-112.407-14.96c-31.095-10.064-38.093-20.681-38.093-23.606v-.423-83.895c7.655 4.277 17.128 8.397 28.854 12.192 32.711 10.587 75.912 16.418 121.646 16.418s88.935-5.831 121.646-16.418c11.726-3.795 21.2-7.916 28.854-12.192v83.895z"/>
<path id="XMLID_321_" d="m354.476 157.38h-.336c-8.284 0-15 6.716-15 15s6.716 15 15 15h.336c8.284 0 15-6.716 15-15s-6.716-15-15-15z"/>
<path id="XMLID_327_" d="m354.476 281.505h-.336c-8.284 0-15 6.716-15 15s6.716 15 15 15h.336c8.284 0 15-6.716 15-15s-6.716-15-15-15z"/>
<path id="XMLID_330_" d="m354.476 405.63h-.336c-8.284 0-15 6.716-15 15s6.716 15 15 15h.336c8.284 0 15-6.716 15-15s-6.716-15-15-15z"/>
</svg>