<svg width="30" height="30" viewBox="0 0 30 30" fill="none" xmlns="http://www.w3.org/2000/svg">
<path d="M30 15C30 6.71573 23.2843 0 15 0C6.71573 0 0 6.71573 0 15C0 23.2843 6.71573 30 15 30C23.2843 30 30 23.2843 30 15Z" fill="#1D1D1D"/>
<path d="M20.2919 22.9898L19.0566 21.5233C20.4175 21.2052 21.6101 20.3893 22.3998 19.2363C19.3504 22.1101 11.0228 22.2275 7.79688 19.2363C8.57271 20.3769 9.74207 21.1913 11.081 21.5233L9.73188 22.9898C8.62429 23.0342 7.52331 22.7996 6.52999 22.3077C5.53667 21.8157 4.68284 21.0821 4.04688 20.1742C4.09914 16.3609 5.02172 12.6099 6.74423 9.20746C8.28465 8.07518 10.1152 7.4041 12.0225 7.27246L12.1989 7.50717C10.398 7.91441 8.7257 8.76071 7.33099 9.9707C11.3192 7.27334 19.5295 7.50717 22.7545 9.9707C21.2837 8.77485 19.5584 7.93209 17.711 7.50717L18.0039 7.27246C19.9112 7.4041 21.7418 8.07518 23.2822 9.20746C25.0047 12.6099 25.9273 16.3609 25.9795 20.1742C25.3433 21.0825 24.4891 21.8163 23.4952 22.3083C22.5014 22.8003 21.3999 23.0346 20.2919 22.9898Z" fill="white"/>
<path d="M11.4698 16.7648C12.4444 16.7648 13.2345 15.9747 13.2345 15.0001C13.2345 14.0254 12.4444 13.2354 11.4698 13.2354C10.4952 13.2354 9.70508 14.0254 9.70508 15.0001C9.70508 15.9747 10.4952 16.7648 11.4698 16.7648Z" fill="#1D1D1D"/>
<path d="M18.5303 16.7648C19.505 16.7648 20.295 15.9747 20.295 15.0001C20.295 14.0254 19.505 13.2354 18.5303 13.2354C17.5557 13.2354 16.7656 14.0254 16.7656 15.0001C16.7656 15.9747 17.5557 16.7648 18.5303 16.7648Z" fill="#1D1D1D"/>
</svg>
