<svg width="16" height="10" viewBox="0 0 16 10" fill="none" xmlns="http://www.w3.org/2000/svg">
<path fill-rule="evenodd" clip-rule="evenodd" d="M7.91034 0.34668C10.817 0.34668 13.4437 2.02224 14.9414 4.79112L15.057 5.00001L14.9414 5.21335C13.4481 8.00446 10.817 9.65779 7.91034 9.65779C5.00367 9.65779 2.37701 7.98223 0.879227 5.21335L0.763672 5.00001L0.888116 4.79112C2.37256 2.02224 5.00367 0.34668 7.91034 0.34668ZM1.77701 5.00001C3.11034 7.35112 5.40812 8.74668 7.91034 8.74668C10.4081 8.74668 12.6837 7.35112 14.0392 5.00001C12.6837 2.65335 10.4126 1.25335 7.91034 1.25335C5.40812 1.25335 3.11034 2.6489 1.77701 5.00001ZM6.35019 2.48998C6.84892 2.15172 7.43672 1.96883 8.03933 1.96444C8.44047 1.96151 8.83823 2.03777 9.20984 2.18884C9.58145 2.33992 9.91959 2.56284 10.2049 2.84484C10.4902 3.12683 10.717 3.46236 10.8724 3.83218C11.0278 4.202 11.1087 4.59885 11.1104 4.99999C11.1131 5.60262 10.937 6.1925 10.6046 6.69514C10.2722 7.19779 9.79823 7.59064 9.24265 7.82408C8.68707 8.05753 8.07478 8.12109 7.48309 8.00675C6.89141 7.89241 6.34688 7.60529 5.91828 7.18165C5.48969 6.75801 5.19624 6.21687 5.07502 5.62656C4.9538 5.03624 5.01023 4.42325 5.23719 3.86499C5.46414 3.30673 5.85145 2.82825 6.35019 2.48998ZM6.84681 6.79947C7.19879 7.03887 7.61367 7.16894 8.03933 7.17333C8.32581 7.17568 8.60991 7.12114 8.87516 7.01286C9.1404 6.90459 9.3815 6.74473 9.5845 6.54257C9.78749 6.3404 9.94833 6.09995 10.0577 5.83515C10.167 5.57035 10.2227 5.28648 10.2216 4.99999C10.2189 4.57431 10.0905 4.15891 9.85256 3.80595C9.6146 3.45299 9.27764 3.17822 8.88402 3.01614C8.49039 2.85406 8.05765 2.8119 7.64015 2.89495C7.22264 2.97801 6.83899 3.18258 6.53737 3.48298C6.23575 3.78337 6.02961 4.16618 5.94485 4.58335C5.86009 5.00051 5.90048 5.43342 6.06095 5.8277C6.22143 6.22198 6.49482 6.56006 6.84681 6.79947Z" fill="#2C9BEB"/>
</svg>
