<svg width="16" height="14" viewBox="0 0 16 14" fill="none" xmlns="http://www.w3.org/2000/svg">
<path fill-rule="evenodd" clip-rule="evenodd" d="M3.78912 3.55118L1.63203 1.56896L2.45907 0.906738L15.034 12.4623L14.1876 13.129L11.7694 10.9067C10.658 11.4008 9.43946 11.6576 8.20486 11.6578C5.04178 11.6578 2.18339 9.98229 0.553484 7.21341L0.427734 7.00007L0.553484 6.79118C1.31132 5.47375 2.42566 4.3579 3.78912 3.55118ZM9.56393 8.85785L6.34764 5.90229C6.12524 6.23238 6.00486 6.61188 5.99941 7.00007C5.9975 7.28543 6.05701 7.56832 6.17452 7.83246C6.29203 8.09661 6.46523 8.33679 6.68413 8.53919C6.90304 8.74159 7.16335 8.90222 7.45006 9.01183C7.73678 9.12143 8.04426 9.17786 8.35479 9.17785C8.78217 9.17527 9.20052 9.06456 9.56393 8.85785ZM5.04764 7.27518C4.98177 6.55887 5.19385 5.84425 5.64634 5.25785L4.49041 4.20007C3.25793 4.88372 2.23839 5.84817 1.53046 7.00007C3.0056 9.35118 5.4819 10.7467 8.20486 10.7467C9.1791 10.7467 10.1432 10.5653 11.0391 10.2134L10.2652 9.50229C9.62709 9.9181 8.84943 10.113 8.06993 10.0525C7.29043 9.99194 6.55938 9.67989 6.00623 9.17158C5.45308 8.66327 5.1135 7.99149 5.04764 7.27518ZM15.8606 6.79112C14.2307 4.02224 11.3723 2.34668 8.20922 2.34668C7.348 2.34854 6.49257 2.47605 5.67488 2.72446L6.45356 3.44446C7.0271 3.30825 7.61684 3.23808 8.20922 3.23557C10.9322 3.23557 13.4085 4.63112 14.8836 6.98223C14.3425 7.8545 13.6251 8.62383 12.7701 9.2489L13.4568 9.88001C14.4464 9.14639 15.2683 8.2401 15.8751 7.21335L16.0009 7.00001L15.8606 6.79112ZM11.4597 8.06673C11.5986 7.72564 11.6691 7.36424 11.6677 7.00006C11.6677 6.19144 11.3181 5.41595 10.6959 4.84417C10.0737 4.27239 9.22979 3.95117 8.34985 3.95117C7.95842 3.95159 7.57023 4.01631 7.20359 4.14228L7.98227 4.88006C8.10064 4.86266 8.2203 4.85374 8.34017 4.85339C8.96236 4.8522 9.55979 5.07728 10.002 5.47948C10.4442 5.88168 10.6953 6.42833 10.7004 7.00006C10.7 7.11021 10.6903 7.22017 10.6714 7.32895L11.4597 8.06673Z" fill="#2C9BEB"/>
</svg>
