<svg width="30" height="30" viewBox="0 0 30 30" fill="none" xmlns="http://www.w3.org/2000/svg">
<path d="M15 0C10.9719 0.0510546 7.12905 1.6998 4.31637 4.58367C1.50369 7.46755 -0.0484837 11.3504 0.00115496 15.3785C-0.0217182 18.5762 0.954436 21.7012 2.79334 24.3172C4.63225 26.9333 7.24214 28.9099 10.2587 29.9711C11.0086 30.1134 11.2871 29.6377 11.2871 29.2315C11.2871 28.8646 11.2734 27.6536 11.2666 26.368C7.09347 27.2979 6.20982 24.5535 6.20982 24.5535C5.93983 23.6292 5.34906 22.8315 4.54366 22.3037C3.18262 21.3489 4.64651 21.3686 4.64651 21.3686C5.12508 21.4395 5.58102 21.6192 5.97923 21.894C6.37745 22.1687 6.70732 22.5311 6.94348 22.9534C7.13923 23.3314 7.4096 23.6658 7.73824 23.9364C8.06688 24.2069 8.44697 24.4081 8.85554 24.5276C9.26411 24.6471 9.69267 24.6825 10.1153 24.6318C10.538 24.581 10.9459 24.445 11.3146 24.2321C11.3797 23.4557 11.7169 22.7272 12.2668 22.1751C8.93532 21.786 5.43331 20.4679 5.43331 14.5754C5.40895 13.0543 5.95996 11.5801 6.97605 10.4478C6.51777 9.12024 6.56971 7.66971 7.12175 6.37837C7.12175 6.37837 8.38165 5.96525 11.2477 7.95453C13.704 7.2644 16.3029 7.2644 18.7591 7.95453C21.6218 5.96525 22.88 6.37837 22.88 6.37837C23.4333 7.66934 23.4859 9.12014 23.0274 10.4478C24.0444 11.5795 24.5956 13.0541 24.5701 14.5754C24.5701 20.4824 21.0612 21.7826 17.7212 22.1631C18.0805 22.5404 18.3566 22.9887 18.5319 23.4793C18.7071 23.9699 18.7775 24.4917 18.7386 25.0112C18.7386 27.0682 18.7214 28.7249 18.7214 29.2315C18.7214 29.6411 18.9914 30.1203 19.7499 29.9694C22.7647 28.9071 25.3727 26.9302 27.21 24.3145C29.0473 21.6989 30.0222 18.5749 29.9988 15.3785C30.0485 11.3504 28.4963 7.46755 25.6836 4.58367C22.871 1.6998 19.0281 0.0510546 15 0V0ZM5.61844 21.9069C5.59025 21.9468 5.54755 21.9741 5.49949 21.9829C5.45143 21.9917 5.40182 21.9813 5.36131 21.954C5.25246 21.9043 5.1899 21.7997 5.22675 21.7235C5.26361 21.6472 5.37674 21.6232 5.48388 21.6755C5.59101 21.7278 5.65786 21.8306 5.61844 21.9069ZM6.35638 22.5823C6.28524 22.65 6.14468 22.6183 6.0504 22.5111C6.00452 22.4729 5.97459 22.4189 5.9665 22.3598C5.95841 22.3006 5.97275 22.2406 6.00669 22.1914C6.0804 22.1237 6.21582 22.1554 6.31438 22.2626C6.41295 22.3697 6.42923 22.5137 6.35638 22.5823ZM6.86291 23.4462C6.7712 23.5113 6.62036 23.4462 6.52779 23.3133C6.43523 23.1805 6.43609 23.0125 6.52779 22.9465C6.6195 22.8805 6.76863 22.9397 6.86291 23.0759C6.90839 23.1267 6.93353 23.1925 6.93353 23.2606C6.93353 23.3288 6.90839 23.3946 6.86291 23.4453V23.4462ZM7.71999 24.4464C7.63428 24.539 7.46287 24.5141 7.3343 24.3873C7.27393 24.3439 7.23176 24.2797 7.21594 24.207C7.20011 24.1344 7.21174 24.0584 7.2486 23.9939C7.3343 23.9004 7.50572 23.927 7.63685 24.053C7.76799 24.179 7.80655 24.3538 7.71485 24.4455L7.71999 24.4464ZM8.82648 24.7841C8.79048 24.9041 8.62163 24.9555 8.45193 24.9084C8.28223 24.8612 8.17167 24.7147 8.20595 24.593C8.24023 24.4713 8.41079 24.4147 8.58135 24.4695C8.75191 24.5244 8.8599 24.6607 8.82905 24.7832L8.82648 24.7841ZM10.0855 24.9272C10.0855 25.0541 9.94582 25.1595 9.76755 25.1612C9.58927 25.1629 9.44357 25.0626 9.441 24.9375C9.43843 24.8124 9.58156 24.7052 9.76155 24.7018C9.94153 24.6984 10.0838 24.8004 10.0838 24.9264L10.0855 24.9272ZM11.3223 24.8784C11.3437 25.0018 11.2194 25.1295 11.0429 25.1629C10.8663 25.1963 10.7078 25.1192 10.6855 24.9966C10.6632 24.8741 10.79 24.7395 10.964 24.7095C11.138 24.6795 11.2983 24.7524 11.3206 24.8784H11.3223Z" fill="#272727"/>
</svg>
