<svg width="18" height="15" viewBox="0 0 18 15" fill="none" xmlns="http://www.w3.org/2000/svg">
<path d="M17.1947 0.3305C16.9917 0.192733 16.7627 0.0951054 16.5209 0.0431949C16.279 -0.00871564 16.029 -0.0138923 15.7851 0.0279609C15.5411 0.0698141 15.3081 0.157877 15.0992 0.287119C14.8904 0.416361 14.7099 0.584251 14.5679 0.781197L7.39705 10.716L2.69528 7.60031C2.31818 7.35007 1.85406 7.25541 1.40501 7.33714C0.955964 7.41887 0.558779 7.67031 0.30083 8.03613C0.0428811 8.40195 -0.0547009 8.8522 0.0295507 9.28781C0.113802 9.72343 0.372986 10.1087 0.750084 10.359L7.05255 14.5351C7.24666 14.6636 7.46602 14.7519 7.69692 14.7944C7.92781 14.837 8.16527 14.8328 8.39443 14.7823C8.63887 14.7408 8.87246 14.653 9.08183 14.5238C9.2912 14.3946 9.47222 14.2265 9.61452 14.0293L17.6595 2.88009C17.9463 2.48197 18.0583 1.98971 17.9711 1.51148C17.8839 1.03325 17.6045 0.608174 17.1944 0.329666" fill="#FAFAFA"/>
</svg>
