<svg width="24" height="22" viewBox="0 0 24 22" fill="none" xmlns="http://www.w3.org/2000/svg">
<path fill-rule="evenodd" clip-rule="evenodd" d="M10.0629 0.432101C10.5199 0.151384 11.0427 0 11.5799 0C12.1171 0 12.6399 0.151384 13.0969 0.432101C13.553 0.712322 13.9253 1.1097 14.1855 1.57773L14.188 1.58237L14.188 1.58238L22.7649 17.2043L22.7722 17.2178C23.0265 17.6983 23.1583 18.2372 23.1597 18.7818C23.1611 19.3263 23.0321 19.8659 22.7803 20.3478C22.5284 20.83 22.1595 21.2426 21.7018 21.5364C21.2433 21.8308 20.7145 21.9934 20.1688 21.9999L20.1568 22.0001V22H3.00298H2.99099L2.99099 21.9999C2.44521 21.9934 1.91644 21.8308 1.45793 21.5364C1.00026 21.2426 0.631348 20.83 0.379427 20.3478C0.127674 19.8659 -0.00138628 19.3263 1.12057e-05 18.7818C0.00140876 18.2372 0.133239 17.6983 0.387558 17.2178L0.394826 17.2043L8.97172 1.58238L9.84832 2.06366L8.97429 1.57773C9.23449 1.1097 9.6067 0.712322 10.0629 0.432101ZM10.7234 2.54762L10.7223 2.54956L2.15219 18.1592C2.05476 18.3456 2.00058 18.5621 2 18.7869C1.99942 19.014 2.05361 19.2332 2.15209 19.4217C2.2504 19.6099 2.38651 19.7559 2.5384 19.8534C2.68797 19.9494 2.85031 19.9972 3.0102 20H20.1495C20.3094 19.9972 20.4718 19.9494 20.6213 19.8534C20.7732 19.7559 20.9093 19.6099 21.0077 19.4217C21.1061 19.2332 21.1603 19.014 21.1597 18.7869C21.1592 18.5621 21.105 18.3456 21.0076 18.1592L12.4374 2.54956L12.4363 2.54751C12.3356 2.36714 12.1999 2.22832 12.05 2.13627C11.9004 2.04437 11.7388 2 11.5799 2C11.4209 2 11.2593 2.04437 11.1097 2.13627C10.9598 2.22834 10.8241 2.3672 10.7234 2.54762ZM11.5799 6.74219C12.1322 6.74219 12.5799 7.1899 12.5799 7.74219V12.1614C12.5799 12.7137 12.1322 13.1614 11.5799 13.1614C11.0276 13.1614 10.5799 12.7137 10.5799 12.1614V7.74219C10.5799 7.1899 11.0276 6.74219 11.5799 6.74219ZM11.5799 15.5806C11.0276 15.5806 10.5799 16.0283 10.5799 16.5806C10.5799 17.1329 11.0276 17.5806 11.5799 17.5806H11.5896C12.1418 17.5806 12.5896 17.1329 12.5896 16.5806C12.5896 16.0283 12.1418 15.5806 11.5896 15.5806H11.5799Z" fill="white"/>
</svg>
