<svg width="18" height="18" viewBox="0 0 18 18" fill="none" xmlns="http://www.w3.org/2000/svg">
<path d="M9 0C4.02912 0 0 4.03032 0 9.00048C0 13.9709 4.02912 18 9 18C13.9709 18 18 13.9709 18 9.00048C18 4.03032 13.9709 0 9 0ZM2.49528 10.1926H3.87576C4.10673 11.9317 4.84328 13.5648 5.994 14.8891C4.19376 13.9666 2.8704 12.2438 2.49528 10.1926ZM3.87576 7.8072H2.49528C2.87064 5.75616 4.194 4.03344 5.99424 3.11088C4.8435 4.43513 4.10687 6.06811 3.87576 7.8072ZM7.8072 13.3342C7.02931 12.442 6.50595 11.3569 6.29208 10.1928H7.8072V13.3342ZM7.8072 7.8072H6.29208C6.50606 6.64316 7.0294 5.55817 7.8072 4.66608V7.8072ZM15.5045 7.8072H14.1242C13.8932 6.06823 13.1568 4.43535 12.0062 3.11112C13.806 4.03392 15.1294 5.75664 15.5045 7.8072ZM10.1928 13.3337V10.1926H11.7079C11.4938 11.3566 10.9705 12.4415 10.1928 13.3337ZM10.1928 7.8072V4.66584C10.9707 5.55795 11.494 6.64305 11.7079 7.8072H10.1928ZM12.0055 14.8894C13.1564 13.565 13.8931 11.9318 14.1242 10.1926H15.5047C15.1296 12.2441 13.806 13.9668 12.0055 14.8894Z" fill="#1D1D1D"/>
</svg>
