<svg width="24" height="24" viewBox="0 0 24 24" fill="none" xmlns="http://www.w3.org/2000/svg">
<path d="M12 5C7.02912 5 3 9.03032 3 14.0005C3 18.9709 7.02912 23 12 23C16.9709 23 21 18.9709 21 14.0005C21 9.03032 16.9709 5 12 5ZM5.49528 15.1926H6.87576C7.10673 16.9317 7.84328 18.5648 8.994 19.8891C7.19376 18.9666 5.8704 17.2438 5.49528 15.1926ZM6.87576 12.8072H5.49528C5.87064 10.7562 7.194 9.03344 8.99424 8.11088C7.8435 9.43513 7.10687 11.0681 6.87576 12.8072ZM10.8072 18.3342C10.0293 17.442 9.50595 16.3569 9.29208 15.1928H10.8072V18.3342ZM10.8072 12.8072H9.29208C9.50606 11.6432 10.0294 10.5582 10.8072 9.66608V12.8072ZM18.5045 12.8072H17.1242C16.8932 11.0682 16.1568 9.43535 15.0062 8.11112C16.806 9.03392 18.1294 10.7566 18.5045 12.8072ZM13.1928 18.3337V15.1926H14.7079C14.4938 16.3566 13.9705 17.4415 13.1928 18.3337ZM13.1928 12.8072V9.66584C13.9707 10.558 14.494 11.643 14.7079 12.8072H13.1928ZM15.0055 19.8894C16.1564 18.565 16.8931 16.9318 17.1242 15.1926H18.5047C18.1296 17.2441 16.806 18.9668 15.0055 19.8894Z" fill="#1D1D1D"/>
</svg>
