<svg width="224" height="224" viewBox="0 0 346 346" fill="none" xmlns="http://www.w3.org/2000/svg">
  <path fill="#909090" opacity="0.65" d="M181.867 313.264C268.492 313.264 338.714 304.929 338.714 294.647C338.714 284.365 268.492 276.03 181.867 276.03C95.2432 276.03 25.0205 284.365 25.0205 294.647C25.0205 304.929 95.2432 313.264 181.867 313.264Z" />
  <path fill="white" d="M293.448 277.416C280.207 287.693 263.465 294.235 251.089 297.857C230.281 303.952 208.723 305.435 187.303 305.767C164.605 306.118 141.702 305.051 119.423 299.48C99.2974 294.449 75.8079 285.556 60.4237 268.433C50.8158 257.738 46.5613 242.753 50.143 227.429C59.6356 186.799 85.294 134.541 85.294 134.541H278.474C278.474 134.541 304.133 186.799 313.625 227.429C318.796 249.583 308.339 265.862 293.448 277.416Z" />
  <path fill="#550039" d="M219.511 260.767C213.241 261.53 206.872 260.358 201.378 257.317C197.11 254.953 192.654 252.959 187.74 252.423C183.338 251.944 178.872 252.023 174.492 252.662C170.212 253.288 166.204 255.247 162.466 257.317C156.974 260.358 150.602 261.53 144.333 260.767C65.262 251.164 84.5323 178.676 88.8413 165.16C89.1777 164.112 90.4592 163.681 91.3882 164.31C103.601 172.587 119.542 175.555 133.847 178.347C150.929 181.682 168.309 184.058 185.769 183.726C201.705 183.426 217.486 180.874 233.046 177.66C246.425 174.9 261.005 172.07 272.458 164.307C273.387 163.678 274.666 164.106 275.005 165.157C279.311 178.676 298.581 251.164 219.511 260.767Z" />
  <path fill="white" d="M121.49 182.18L106.958 243.037C106.785 244.938 131.822 255.69 132.014 253.633L149.208 187.304L121.49 182.18Z" />
  <path fill="white" d="M156.004 188.256L138.454 254.962L150.247 256.978L167.797 190.272L156.004 188.256Z" />
  <path fill="black" opacity="0.25" d="M306.468 202.455C306.064 202.596 305.651 202.736 305.238 202.877C299.023 204.969 292.09 206.733 285.141 208.205C275.735 210.198 266.281 211.655 258.416 212.649C235.416 215.568 211.587 216.274 187.912 216.431C179.143 216.488 170.346 216.472 161.561 216.3C157.265 216.217 152.972 216.102 148.692 215.936C146.273 215.853 143.861 215.744 141.448 215.629C131.863 215.156 122.325 214.453 112.887 213.428C112.599 213.396 112.304 213.361 112.016 213.329C101.296 212.163 89.7662 210.54 78.8096 208.272C71.2232 206.701 63.9252 204.813 57.3672 202.529C68.7948 168.22 85.3355 134.544 85.3355 134.544H278.516C278.522 134.544 295.04 168.172 306.468 202.455Z" />
  <path fill="#FFE783" d="M329.843 171.514C329.843 182.116 263.613 190.706 181.921 190.706C100.23 190.706 34 182.113 34 171.514C34 166.502 48.8011 161.937 73.0307 158.506C67.232 155.791 64.0411 152.807 64.0411 149.677C64.0411 145.949 68.5872 142.416 76.6701 139.295C73.0435 133.538 71.0733 127.383 71.0733 120.987C71.0733 88.8575 120.699 62.8132 181.921 62.8132C243.144 62.8132 292.77 88.8575 292.77 120.987C292.77 127.383 290.799 133.538 287.173 139.295C295.256 142.419 299.802 145.949 299.802 149.677C299.802 152.81 296.611 155.794 290.812 158.506C315.042 161.937 329.843 166.502 329.843 171.514Z" />
  <path fill="#F4DE7F" d="M161.767 62.8101C161.767 62.8101 144.131 161.26 131.537 161.26H181.922V62.8101H161.767Z" />
  <path fill="#F4DE7F" d="M202.076 62.8101C202.076 62.8101 219.713 161.26 232.306 161.26H181.922V62.8101H202.076Z" />
  <path fill="#F4DE7F" d="M277.655 147.98C277.655 160.26 234.795 170.21 181.922 170.21C129.048 170.21 86.1885 160.26 86.1885 147.98C86.1885 147.782 86.1981 147.587 86.2205 147.393C86.5953 144.032 90.7409 142.323 93.8806 144.026C108.509 151.951 142.417 157.506 181.922 157.506C221.426 157.506 255.331 151.951 269.963 144.026C273.102 142.323 277.248 144.032 277.623 147.393C277.645 147.591 277.655 147.785 277.655 147.98Z" />
  <path fill="#FFE783" d="M202.076 59.9542V161.26H161.767V59.9542C161.767 55.5586 165.774 52 170.724 52H193.118C198.068 52 202.076 55.5586 202.076 59.9542Z" />
  <path fill="#F4DE7F" d="M317.963 171.75C317.963 175.842 257.058 179.081 181.925 179.161C106.958 179.238 45.8889 175.845 45.8857 171.75C45.8857 171.683 45.9018 171.619 45.9306 171.555C46.4624 170.434 52.354 169.865 56.8168 170.434C77.6056 173.076 125.789 174.929 181.925 174.929C238.06 174.929 286.244 173.076 307.032 170.434C311.495 169.865 317.387 170.437 317.919 171.555C317.947 171.619 317.963 171.686 317.963 171.75Z" />
  <path fill="white" d="M151.24 71.9684C149.77 72.3262 148.309 72.7542 146.861 73.2046C145.413 73.6519 143.974 74.131 142.548 74.6453C139.7 75.6676 136.894 76.7952 134.158 78.0602C131.419 79.3092 128.747 80.6892 126.177 82.2162C123.595 83.7176 121.122 85.3851 118.793 87.2027C116.473 89.0331 114.34 91.0712 112.459 93.2817C110.559 95.4763 108.839 97.7635 107.282 100.166C106.904 100.773 106.52 101.38 106.177 102.006L105.904 102.472L105.655 102.948C105.491 103.268 105.312 103.581 105.155 103.903C104.498 105.184 103.941 106.52 103.415 107.88C102.88 109.241 102.467 110.653 102.063 112.087C101.66 113.525 101.365 115.001 101.028 116.509H100.606C99.4041 110.398 100.593 103.731 103.627 98.051C104.389 96.6327 105.261 95.2751 106.231 93.9973C107.192 92.7099 108.288 91.5376 109.419 90.4163C111.706 88.193 114.221 86.2731 116.791 84.4842C119.373 82.7145 122.067 81.1397 124.838 79.7501C127.619 78.3733 130.467 77.1658 133.357 76.1052C136.256 75.0574 139.191 74.1438 142.161 73.3771C145.134 72.6169 148.126 71.9716 151.166 71.5499L151.24 71.9684Z" />
  <path fill="white" d="M277.665 127.421C277.335 126.041 276.905 124.667 276.444 123.316C275.992 121.961 275.483 120.629 274.942 119.313C273.849 116.684 272.619 114.122 271.209 111.675C269.816 109.219 268.259 106.874 266.538 104.673C264.834 102.463 262.989 100.37 260.945 98.5111C258.913 96.6391 256.677 95.0164 254.345 93.6012C253.762 93.2498 253.163 92.924 252.58 92.5758C252.285 92.4065 252.003 92.2148 251.699 92.0647C251.398 91.905 251.096 91.7484 250.802 91.5855C250.504 91.4226 250.206 91.2597 249.911 91.0904L249.469 90.838L249.011 90.6112C248.402 90.3109 247.8 89.9915 247.198 89.6752C246.903 89.5027 246.586 89.375 246.275 89.228L245.343 88.7968L244.413 88.3495C244.106 88.1962 243.776 88.0908 243.462 87.9502C242.824 87.6851 242.187 87.4232 241.549 87.142C241.232 86.9983 240.899 86.9025 240.572 86.7779L239.589 86.4105C238.288 85.8707 236.933 85.4873 235.581 84.9954C234.226 84.5194 232.835 84.1584 231.438 83.6186L231.477 83.1202C232.211 83.0084 232.947 82.9318 233.691 82.8615C234.434 82.7976 235.184 82.7114 235.924 82.7337C237.41 82.7497 238.919 82.7497 240.402 82.9669C241.146 83.0627 241.899 83.1362 242.642 83.2736C243.382 83.4205 244.116 83.5898 244.856 83.7527C245.224 83.839 245.599 83.9093 245.958 84.0243L247.044 84.3597L248.127 84.7111C248.485 84.8325 248.854 84.9347 249.203 85.0848C252.051 86.1677 254.729 87.6915 257.161 89.5187C259.564 91.3939 261.746 93.499 263.793 95.6872C265.846 97.8786 267.644 100.271 269.265 102.756C270.86 105.258 272.251 107.871 273.449 110.551C274.631 113.241 275.627 115.997 276.425 118.799C277.216 121.604 277.835 124.447 278.155 127.341L277.665 127.421Z" />
</svg>