<svg width="406" height="526" viewBox="0 0 406 526" fill="none" xmlns="http://www.w3.org/2000/svg">
<g opacity="0.1">
<path d="M144.459 514.45C144.459 508.274 149.852 503.268 156.504 503.268C163.157 503.268 168.549 508.274 168.549 514.45C168.549 520.625 163.157 525.631 156.504 525.631C149.852 525.631 144.459 520.625 144.459 514.45Z" fill="#141111"/>
<path d="M156.505 526C163.373 526 168.947 520.826 168.947 514.45C168.947 508.074 163.373 502.895 156.505 502.895C149.696 502.895 144.193 507.996 144.098 514.296C144.098 514.298 144.092 514.299 144.092 514.301C144.072 514.349 144.062 514.399 144.063 514.45C144.063 514.497 144.073 514.544 144.092 514.588C144.177 520.896 149.689 526 156.505 526ZM156.505 525.257C150.069 525.257 144.857 520.425 144.857 514.45C144.857 508.475 150.069 503.637 156.505 503.637C162.941 503.637 168.153 508.475 168.153 514.45C168.153 520.425 162.941 525.257 156.505 525.257Z" fill="#141111"/>
<path d="M380.987 409.99C380.987 403.815 386.38 398.809 393.032 398.809C399.685 398.809 405.077 403.815 405.077 409.99C405.077 416.165 399.685 421.171 393.032 421.171C386.38 421.171 380.987 416.165 380.987 409.99Z" fill="#141111"/>
<path d="M393.031 421.544C399.899 421.544 405.479 416.364 405.479 409.988C405.479 403.613 399.899 398.438 393.031 398.438C386.219 398.438 380.716 403.537 380.624 409.84C380.622 409.847 380.62 409.855 380.618 409.862C380.6 409.902 380.59 409.945 380.588 409.988C380.59 410.034 380.6 410.079 380.618 410.121C380.699 416.432 386.213 421.544 393.031 421.544ZM393.031 420.801C386.594 420.801 381.389 415.963 381.389 409.988C381.389 404.014 386.594 399.181 393.031 399.181C399.467 399.181 404.679 404.014 404.679 409.988C404.679 415.963 399.467 420.801 393.031 420.801Z" fill="#141111"/>
<path d="M302.117 337.41C302.117 331.235 307.51 326.229 314.162 326.229C320.815 326.229 326.207 331.235 326.207 337.41C326.207 343.586 320.815 348.592 314.162 348.592C307.51 348.592 302.117 343.586 302.117 337.41Z" fill="#141111"/>
<path d="M314.163 348.964C321.031 348.964 326.605 343.785 326.605 337.409C326.605 331.033 321.031 325.859 314.163 325.859C307.352 325.859 301.842 330.957 301.751 337.26C301.746 337.275 301.742 337.289 301.739 337.304C301.739 337.318 301.727 337.329 301.727 337.343C301.721 337.364 301.717 337.387 301.715 337.409C301.716 337.45 301.724 337.491 301.739 337.53C301.813 343.847 307.341 348.964 314.163 348.964ZM314.163 348.222C307.727 348.222 302.515 343.384 302.515 337.409C302.515 331.434 307.727 326.602 314.163 326.602C320.599 326.602 325.805 331.434 325.805 337.409C325.805 343.384 320.599 348.222 314.163 348.222Z" fill="#141111"/>
<path d="M321.521 165.937C321.521 159.762 326.914 154.756 333.566 154.756C340.218 154.756 345.611 159.762 345.611 165.937C345.611 172.112 340.218 177.118 333.566 177.118C326.914 177.118 321.521 172.112 321.521 165.937Z" fill="#141111"/>
<path d="M333.564 177.492C340.433 177.492 346.012 172.312 346.012 165.937C346.012 159.561 340.433 154.387 333.564 154.387C326.753 154.387 321.249 159.485 321.158 165.788C321.156 165.795 321.154 165.803 321.152 165.81C321.134 165.85 321.124 165.893 321.122 165.937C321.123 165.982 321.133 166.027 321.152 166.069C321.233 172.38 326.747 177.492 333.564 177.492ZM333.564 176.749C327.128 176.749 321.922 171.912 321.922 165.937C321.922 159.962 327.128 155.13 333.564 155.13C340.001 155.13 345.212 159.962 345.212 165.937C345.212 171.912 340.001 176.749 333.564 176.749Z" fill="#141111"/>
<path d="M214.227 84.1165C214.227 77.9413 219.62 72.9352 226.272 72.9352C232.924 72.9352 238.317 77.9413 238.317 84.1165C238.317 90.2918 232.924 95.2979 226.272 95.2979C219.62 95.2979 214.227 90.2918 214.227 84.1165Z" fill="#141111"/>
<path d="M226.274 95.6685C233.142 95.6685 238.716 90.4941 238.716 84.1185C238.716 77.7428 233.142 72.563 226.274 72.563C219.462 72.563 213.953 77.6671 213.861 83.9699C213.859 83.9772 213.857 83.9845 213.855 83.9919C213.837 84.0322 213.827 84.075 213.826 84.1185C213.827 84.162 213.837 84.2048 213.855 84.245C213.933 90.5587 219.454 95.6685 226.274 95.6685ZM226.274 94.9256C219.837 94.9256 214.626 90.0933 214.626 84.1185C214.626 78.1436 219.837 73.3058 226.274 73.3058C232.71 73.3058 237.916 78.1436 237.916 84.1185C237.916 90.0933 232.71 94.9256 226.274 94.9256Z" fill="#141111"/>
<path d="M237.806 237.939C237.806 231.764 243.199 226.758 249.851 226.758C256.504 226.758 261.896 231.764 261.896 237.939C261.896 244.115 256.504 249.121 249.851 249.121C243.199 249.121 237.806 244.115 237.806 237.939Z" fill="#141111"/>
<path d="M249.854 249.494C256.722 249.494 262.296 244.314 262.296 237.938C262.296 231.563 256.722 226.388 249.854 226.388C243.043 226.388 237.533 231.487 237.441 237.79C237.439 237.797 237.437 237.804 237.435 237.812C237.417 237.852 237.407 237.895 237.406 237.938C237.407 237.984 237.417 238.029 237.435 238.07C237.516 244.382 243.036 249.494 249.854 249.494ZM249.854 248.751C243.417 248.751 238.206 243.913 238.206 237.938C238.206 231.964 243.417 227.131 249.854 227.131C256.29 227.131 261.496 231.964 261.496 237.938C261.496 243.913 256.29 248.751 249.854 248.751Z" fill="#141111"/>
<path d="M255.786 473.649C255.786 467.474 261.178 462.467 267.831 462.467C274.483 462.467 279.876 467.474 279.876 473.649C279.876 479.824 274.483 484.83 267.831 484.83C261.178 484.83 255.786 479.824 255.786 473.649Z" fill="#141111"/>
<path d="M267.832 485.198C274.701 485.198 280.275 480.024 280.275 473.648C280.275 467.273 274.701 462.098 267.832 462.098C261.021 462.098 255.511 467.197 255.42 473.5C255.418 473.507 255.416 473.514 255.414 473.522C255.396 473.562 255.386 473.605 255.384 473.648C255.385 473.694 255.396 473.738 255.414 473.78C255.495 480.091 261.015 485.198 267.832 485.198ZM267.832 484.461C261.396 484.461 256.185 479.623 256.185 473.648C256.185 467.673 261.396 462.836 267.832 462.836C274.269 462.836 279.474 467.673 279.474 473.648C279.474 479.623 274.269 484.461 267.832 484.461Z" fill="#141111"/>
<path d="M257.737 11.5538C257.737 5.37854 263.13 0.372499 269.782 0.372499C276.434 0.372499 281.827 5.37854 281.827 11.5538C281.827 17.7291 276.434 22.7351 269.782 22.7351C263.13 22.7351 257.737 17.7291 257.737 11.5538Z" fill="#141111"/>
<path d="M269.783 23.1055C276.651 23.1055 282.225 17.9312 282.225 11.5555C282.225 5.1798 276.651 -2.09808e-05 269.783 7.62939e-06C262.973 7.62939e-06 257.471 5.1012 257.376 11.4014C257.376 11.4037 257.37 11.4047 257.37 11.4069C257.349 11.454 257.339 11.5046 257.341 11.5555C257.341 11.6027 257.351 11.6494 257.37 11.6931C257.455 18.0015 262.967 23.1055 269.783 23.1055ZM269.783 22.3626C263.346 22.3626 258.135 17.5303 258.135 11.5555C258.135 5.58062 263.346 0.742859 269.783 0.742859C276.219 0.742859 281.431 5.58062 281.431 11.5555C281.431 17.5303 276.219 22.3626 269.783 22.3626Z" fill="#141111"/>
<path d="M249.125 241.669V234.213L-42.3268 234.213V241.669L249.125 241.669Z" fill="#141111"/>
<path d="M315.609 341.404V333.948H128.171L22.4863 235.836L16.8076 241.108L124.845 341.404H315.609Z" fill="#141111"/>
<path d="M394.187 412.75V405.559L-42.7594 405.559V412.75L394.187 412.75Z" fill="#141111"/>
<path d="M153.452 517.399L159.131 512.133L45.0766 406.252L39.3979 411.524L153.452 517.399Z" fill="#141111"/>
<path d="M268.805 477.027V469.576H111.147V477.027H268.805Z" fill="#141111"/>
<path d="M158.692 473.863L166.582 446.526H200.198V439.07H160.423L150.933 471.931L158.692 473.863Z" fill="#141111"/>
<path d="M227.88 377.578V370.128H169.113L148.645 337.222L141.692 340.947L164.478 377.578H227.88Z" fill="#141111"/>
<path d="M192.432 291.385V283.934H144.578L131.135 237.377L123.381 239.303L138.414 291.385H192.432Z" fill="#141111"/>
<path d="M61.2296 240.794L139.338 169.855L332.136 169.855V162.398L136.06 162.398L55.6161 235.468L61.2296 240.794Z" fill="#141111"/>
<path d="M-40.9871 141.813L59.2794 88.0747L224.839 88.0747V80.6187L57.1277 80.6187L-45.0001 135.353L-40.9871 141.813Z" fill="#141111"/>
<path d="M-4.83418 237.173L17.7443 158.959H88.6155V151.503H11.5855L-12.5876 235.247L-4.83418 237.173Z" fill="#141111"/>
<path d="M94.4718 86.9907L172.853 14.2297L271.62 14.2297V6.77367L169.528 6.77367L88.7931 81.7192L94.4718 86.9907Z" fill="#141111"/>
<path d="M81.4139 155.779C81.4139 149.604 86.8066 144.598 93.4589 144.598C100.111 144.598 105.504 149.604 105.504 155.779C105.504 161.955 100.111 166.961 93.4589 166.961C86.8066 166.961 81.4139 161.955 81.4139 155.779Z" fill="#141111"/>
<path d="M93.4582 167.329C100.326 167.329 105.906 162.155 105.906 155.779C105.906 149.403 100.326 144.229 93.4582 144.229C86.649 144.229 81.1462 149.325 81.0515 155.625C81.0515 155.627 81.0456 155.628 81.0456 155.63C81.0249 155.677 81.0148 155.728 81.016 155.779C81.0171 155.824 81.0271 155.869 81.0456 155.911C81.1268 162.222 86.6405 167.329 93.4582 167.329ZM93.4582 166.592C87.0217 166.592 81.8162 161.754 81.8162 155.779C81.8162 149.804 87.0217 144.966 93.4582 144.966C99.8945 144.966 105.106 149.804 105.106 155.779C105.106 161.754 99.8945 166.592 93.4582 166.592Z" fill="#141111"/>
<path d="M187.12 288.59C187.12 282.415 192.513 277.409 199.165 277.409C205.818 277.409 211.21 282.415 211.21 288.59C211.21 294.765 205.818 299.771 199.165 299.771C192.513 299.771 187.12 294.765 187.12 288.59Z" fill="#141111"/>
<path d="M199.166 300.14C206.034 300.14 211.608 294.965 211.608 288.59C211.608 282.214 206.034 277.04 199.166 277.04C192.355 277.04 186.845 282.138 186.754 288.441C186.749 288.456 186.745 288.47 186.742 288.485C186.742 288.499 186.73 288.51 186.73 288.524C186.724 288.545 186.72 288.567 186.718 288.59C186.719 288.631 186.727 288.672 186.742 288.711C186.816 295.028 192.344 300.14 199.166 300.14ZM199.166 299.402C192.73 299.402 187.518 294.565 187.518 288.59C187.518 282.615 192.73 277.777 199.166 277.777C205.603 277.777 210.808 282.615 210.808 288.59C210.808 294.565 205.603 299.402 199.166 299.402Z" fill="#141111"/>
<path d="M193.68 443.561C193.68 437.385 199.072 432.379 205.725 432.379C212.377 432.379 217.77 437.385 217.77 443.561C217.77 449.736 212.377 454.742 205.725 454.742C199.072 454.742 193.68 449.736 193.68 443.561Z" fill="#141111"/>
<path d="M205.722 455.115C212.59 455.115 218.17 449.936 218.17 443.56C218.17 437.184 212.59 432.01 205.722 432.01C198.911 432.01 193.407 437.109 193.316 443.411C193.313 443.419 193.312 443.426 193.31 443.433C193.292 443.474 193.282 443.517 193.28 443.56C193.281 443.605 193.291 443.65 193.31 443.692C193.391 450.003 198.905 455.115 205.722 455.115ZM205.722 454.373C199.286 454.373 194.08 449.535 194.08 443.56C194.08 437.585 199.286 432.753 205.722 432.753C212.159 432.753 217.37 437.585 217.37 443.56C217.37 449.535 212.159 454.373 205.722 454.373Z" fill="#141111"/>
<path d="M218.139 374.913C218.139 368.738 223.532 363.732 230.184 363.732C236.836 363.732 242.229 368.738 242.229 374.913C242.229 381.088 236.836 386.094 230.184 386.094C223.532 386.094 218.139 381.088 218.139 374.913Z" fill="#141111"/>
<path d="M230.186 386.465C237.054 386.465 242.628 381.291 242.628 374.915C242.628 368.539 237.054 363.359 230.186 363.359C223.375 363.359 217.865 368.463 217.773 374.766C217.771 374.774 217.769 374.781 217.767 374.788C217.75 374.829 217.739 374.871 217.738 374.915C217.739 374.958 217.75 375.001 217.767 375.041C217.845 381.355 223.366 386.465 230.186 386.465ZM230.186 385.722C223.749 385.722 218.538 380.89 218.538 374.915C218.538 368.94 223.749 364.102 230.186 364.102C236.622 364.102 241.828 368.94 241.828 374.915C241.828 380.89 236.622 385.722 230.186 385.722Z" fill="#141111"/>
</g>
</svg>
