<svg viewBox="0 0 397 565" fill="none" xmlns="http://www.w3.org/2000/svg">
<g opacity="0.1">
<path d="M254.005 12.4032C254.005 19.0343 248.757 24.4099 242.283 24.4099C235.81 24.4099 230.562 19.0343 230.562 12.4032C230.562 5.77206 235.81 0.396484 242.283 0.396484C248.757 0.396484 254.005 5.77206 254.005 12.4032Z" fill="#141111"/>
<path d="M242.283 0C235.599 0 230.175 5.55628 230.175 12.4026C230.175 19.2489 235.599 24.811 242.283 24.811C248.909 24.811 254.264 19.3333 254.356 12.568C254.356 12.5656 254.362 12.5645 254.362 12.5621C254.382 12.5115 254.392 12.4572 254.391 12.4026C254.39 12.3519 254.381 12.3018 254.362 12.2549C254.28 5.48071 248.915 0 242.283 0ZM242.283 0.797665C248.546 0.797665 253.618 5.98669 253.618 12.4026C253.618 18.8185 248.546 24.0134 242.283 24.0134C236.019 24.0134 230.948 18.8185 230.948 12.4026C230.948 5.98669 236.019 0.797665 242.283 0.797665Z" fill="#141111"/>
<path d="M23.8332 124.574C23.8332 131.205 18.5854 136.58 12.1119 136.58C5.63843 136.58 0.390625 131.205 0.390625 124.574C0.390625 117.942 5.63843 112.567 12.1119 112.567C18.5854 112.567 23.8332 117.942 23.8332 124.574Z" fill="#141111"/>
<path d="M12.1136 112.167C5.42998 112.167 0 117.729 0 124.575C0 131.422 5.42998 136.978 12.1136 136.978C18.7417 136.978 24.0978 131.503 24.1868 124.735C24.1889 124.727 24.1909 124.719 24.1926 124.711C24.2099 124.668 24.2196 124.622 24.2214 124.575C24.2203 124.527 24.2106 124.478 24.1926 124.433C24.1136 117.656 18.748 112.167 12.1136 112.167ZM12.1136 112.964C18.377 112.964 23.4427 118.159 23.4427 124.575C23.4427 130.991 18.377 136.18 12.1136 136.18C5.85016 136.18 0.77873 130.991 0.77873 124.575C0.77873 118.159 5.85016 112.964 12.1136 112.964Z" fill="#141111"/>
<path d="M100.584 202.511C100.584 209.142 95.3359 214.518 88.8624 214.518C82.3889 214.518 77.1411 209.142 77.1411 202.511C77.1411 195.88 82.3889 190.504 88.8624 190.504C95.3359 190.504 100.584 195.88 100.584 202.511Z" fill="#141111"/>
<path d="M88.8618 190.104C82.1781 190.104 76.7539 195.666 76.7539 202.512C76.7539 209.359 82.1781 214.915 88.8618 214.915C95.49 214.915 100.852 209.44 100.941 202.672C100.946 202.657 100.949 202.641 100.952 202.625C100.952 202.61 100.964 202.598 100.964 202.583C100.97 202.56 100.974 202.536 100.975 202.512C100.975 202.468 100.967 202.424 100.952 202.382C100.88 195.599 95.5006 190.104 88.8618 190.104ZM88.8618 190.902C95.1252 190.902 100.197 196.097 100.197 202.512C100.197 208.928 95.1252 214.117 88.8618 214.117C82.5983 214.117 77.5326 208.928 77.5326 202.512C77.5326 196.097 82.5983 190.902 88.8618 190.902Z" fill="#141111"/>
<path d="M81.7014 386.642C81.7014 393.273 76.4536 398.649 69.9801 398.649C63.5066 398.649 58.2588 393.273 58.2588 386.642C58.2588 380.011 63.5066 374.635 69.9801 374.635C76.4536 374.635 81.7014 380.011 81.7014 386.642Z" fill="#141111"/>
<path d="M69.9817 374.234C63.2981 374.234 57.8682 379.796 57.8682 386.642C57.8682 393.489 63.2981 399.045 69.9817 399.045C76.6099 399.045 81.966 393.57 82.055 386.802C82.0571 386.794 82.059 386.786 82.0607 386.778C82.078 386.735 82.0878 386.689 82.0896 386.642C82.0885 386.594 82.0787 386.546 82.0607 386.501C81.9817 379.724 76.6162 374.234 69.9817 374.234ZM69.9817 375.032C76.2452 375.032 81.3108 380.226 81.3108 386.642C81.3108 393.058 76.2452 398.247 69.9817 398.247C63.7183 398.247 58.6469 393.058 58.6469 386.642C58.6469 380.226 63.7183 375.032 69.9817 375.032Z" fill="#141111"/>
<path d="M186.112 474.502C186.112 481.134 180.864 486.509 174.391 486.509C167.917 486.509 162.67 481.134 162.67 474.502C162.67 467.871 167.917 462.496 174.391 462.496C180.864 462.496 186.112 467.871 186.112 474.502Z" fill="#141111"/>
<path d="M174.389 462.098C167.706 462.098 162.282 467.654 162.281 474.5C162.281 481.347 167.706 486.909 174.389 486.909C181.018 486.909 186.379 481.428 186.468 474.66C186.471 474.652 186.472 474.644 186.474 474.636C186.491 474.593 186.501 474.547 186.503 474.5C186.501 474.454 186.491 474.408 186.474 474.364C186.398 467.585 181.026 462.098 174.389 462.098ZM174.389 462.895C180.653 462.895 185.724 468.084 185.724 474.5C185.724 480.916 180.653 486.111 174.389 486.111C168.126 486.111 163.06 480.916 163.06 474.5C163.06 468.084 168.126 462.895 174.389 462.895Z" fill="#141111"/>
<path d="M163.166 309.325C163.166 315.956 157.919 321.331 151.445 321.331C144.972 321.331 139.724 315.956 139.724 309.325C139.724 302.693 144.972 297.318 151.445 297.318C157.919 297.318 163.166 302.693 163.166 309.325Z" fill="#141111"/>
<path d="M151.443 296.917C144.759 296.917 139.335 302.479 139.335 309.326C139.335 316.172 144.759 321.728 151.443 321.728C158.071 321.728 163.433 316.253 163.522 309.485C163.524 309.477 163.526 309.47 163.528 309.462C163.545 309.418 163.555 309.372 163.556 309.326C163.555 309.277 163.546 309.229 163.528 309.184C163.449 302.407 158.077 296.917 151.443 296.917ZM151.443 297.715C157.706 297.715 162.778 302.91 162.778 309.326C162.778 315.742 157.706 320.931 151.443 320.931C145.179 320.931 140.114 315.742 140.114 309.326C140.114 302.91 145.179 297.715 151.443 297.715Z" fill="#141111"/>
<path d="M145.67 56.2157C145.67 62.8468 140.422 68.2224 133.949 68.2224C127.475 68.2224 122.227 62.8468 122.227 56.2157C122.227 49.5846 127.475 44.209 133.949 44.209C140.422 44.209 145.67 49.5846 145.67 56.2157Z" fill="#141111"/>
<path d="M133.947 43.8137C127.264 43.8137 121.839 49.37 121.839 56.2163C121.839 63.0626 127.264 68.6189 133.947 68.6189C140.575 68.6189 145.937 63.1439 146.026 56.3759C146.028 56.368 146.03 56.3602 146.032 56.3522C146.049 56.309 146.059 56.263 146.061 56.2163C146.06 56.1676 146.05 56.1196 146.032 56.0745C145.953 49.2975 140.582 43.8137 133.947 43.8137ZM133.947 44.6055C140.211 44.6055 145.282 49.8004 145.282 56.2163C145.282 62.6322 140.211 67.8271 133.947 67.8271C127.684 67.8271 122.618 62.6322 122.618 56.2163C122.618 49.8004 127.684 44.6055 133.947 44.6055Z" fill="#141111"/>
<path d="M143.772 552.422C143.772 559.053 138.524 564.428 132.05 564.428C125.577 564.428 120.329 559.053 120.329 552.422C120.329 545.79 125.577 540.415 132.05 540.415C138.524 540.415 143.772 545.79 143.772 552.422Z" fill="#141111"/>
<path d="M132.05 540.017C125.366 540.017 119.942 545.573 119.942 552.42C119.942 559.266 125.366 564.828 132.05 564.828C138.676 564.828 144.031 559.35 144.123 552.585C144.123 552.583 144.129 552.582 144.129 552.579C144.149 552.529 144.159 552.474 144.157 552.42C144.157 552.369 144.147 552.319 144.129 552.272C144.046 545.498 138.682 540.017 132.05 540.017ZM132.05 540.815C138.313 540.815 143.384 546.004 143.384 552.42C143.384 558.836 138.313 564.03 132.05 564.03C125.786 564.03 120.715 558.836 120.715 552.42C120.715 546.004 125.786 540.815 132.05 540.815Z" fill="#141111"/>
<path d="M152.152 305.32V313.326H435.771V305.32H152.152Z" fill="#141111"/>
<path d="M87.4543 198.223V206.229H269.856L372.7 311.583L378.226 305.922L273.092 198.223H87.4543Z" fill="#141111"/>
<path d="M10.9888 121.609V129.332H436.192V121.609H10.9888Z" fill="#141111"/>
<path d="M245.254 9.23535L239.728 14.8901L350.717 128.587L356.243 122.927L245.254 9.23535Z" fill="#141111"/>
<path d="M133.001 52.5881V60.5887H286.423V52.5881H133.001Z" fill="#141111"/>
<path d="M240.155 55.9858L232.477 85.3408H199.765V93.3472H238.47L247.705 58.0598L240.155 55.9858Z" fill="#141111"/>
<path d="M172.826 159.378V167.379H230.014L249.932 202.713L256.698 198.713L234.525 159.378H172.826Z" fill="#141111"/>
<path d="M207.321 251.934V259.934H253.889L266.972 309.929L274.517 307.861L259.888 251.934H207.321Z" fill="#141111"/>
<path d="M334.998 306.259L258.988 382.435H71.3722V390.442H262.178L340.461 311.979L334.998 306.259Z" fill="#141111"/>
<path d="M434.468 412.547L336.896 470.252H175.785V478.258H338.99L438.373 419.483L434.468 412.547Z" fill="#141111"/>
<path d="M399.286 310.147L377.315 394.135H308.348V402.141H383.308L406.831 312.215L399.286 310.147Z" fill="#141111"/>
<path d="M302.649 471.416L226.374 549.548H130.261V557.555H229.61L308.175 477.077L302.649 471.416Z" fill="#141111"/>
<path d="M315.356 397.55C315.356 404.181 310.108 409.556 303.635 409.556C297.161 409.556 291.913 404.181 291.913 397.55C291.913 390.918 297.161 385.543 303.635 385.543C310.108 385.543 315.356 390.918 315.356 397.55Z" fill="#141111"/>
<path d="M303.635 385.147C296.952 385.147 291.522 390.704 291.522 397.55C291.522 404.396 296.952 409.953 303.635 409.953C310.262 409.953 315.617 404.481 315.709 397.715C315.709 397.713 315.714 397.712 315.714 397.71C315.735 397.659 315.744 397.605 315.743 397.55C315.742 397.501 315.732 397.453 315.714 397.408C315.635 390.631 310.27 385.147 303.635 385.147ZM303.635 385.939C309.899 385.939 314.964 391.134 314.964 397.55C314.964 403.966 309.899 409.161 303.635 409.161C297.372 409.161 292.301 403.966 292.301 397.55C292.301 391.134 297.372 385.939 303.635 385.939Z" fill="#141111"/>
<path d="M212.49 254.935C212.49 261.566 207.242 266.942 200.769 266.942C194.295 266.942 189.047 261.566 189.047 254.935C189.047 248.304 194.295 242.928 200.769 242.928C207.242 242.928 212.49 248.304 212.49 254.935Z" fill="#141111"/>
<path d="M200.768 242.533C194.084 242.533 188.66 248.089 188.66 254.936C188.66 261.782 194.084 267.338 200.768 267.338C207.396 267.338 212.758 261.863 212.847 255.095C212.852 255.08 212.856 255.064 212.859 255.048C212.859 255.033 212.87 255.021 212.87 255.006C212.876 254.983 212.88 254.959 212.882 254.936C212.881 254.891 212.873 254.847 212.859 254.806C212.786 248.022 207.407 242.533 200.768 242.533ZM200.768 243.325C207.031 243.325 212.103 248.52 212.103 254.936C212.103 261.351 207.031 266.546 200.768 266.546C194.505 266.546 189.439 261.351 189.439 254.936C189.439 248.52 194.505 243.325 200.768 243.325Z" fill="#141111"/>
<path d="M206.107 88.5247C206.107 95.1558 200.86 100.531 194.386 100.531C187.912 100.531 182.665 95.1558 182.665 88.5247C182.665 81.8936 187.912 76.5181 194.386 76.5181C200.86 76.5181 206.107 81.8936 206.107 88.5247Z" fill="#141111"/>
<path d="M194.388 76.1172C187.705 76.1172 182.275 81.6794 182.275 88.5257C182.275 95.372 187.705 100.928 194.388 100.928C201.017 100.928 206.373 95.4532 206.462 88.6852C206.464 88.6774 206.466 88.6695 206.467 88.6616C206.485 88.6183 206.494 88.5723 206.496 88.5257C206.495 88.477 206.485 88.4289 206.467 88.3838C206.388 81.6069 201.023 76.1172 194.388 76.1172ZM194.388 76.9149C200.652 76.9149 205.718 82.1098 205.718 88.5257C205.718 94.9416 200.652 100.131 194.388 100.131C188.125 100.131 183.054 94.9416 183.054 88.5257C183.054 82.1098 188.125 76.9149 194.388 76.9149Z" fill="#141111"/>
<path d="M182.305 162.24C182.305 168.871 177.057 174.247 170.584 174.247C164.11 174.247 158.863 168.871 158.863 162.24C158.863 155.609 164.11 150.233 170.584 150.233C177.057 150.233 182.305 155.609 182.305 162.24Z" fill="#141111"/>
<path d="M170.582 149.835C163.899 149.835 158.475 155.392 158.475 162.238C158.475 169.084 163.899 174.646 170.582 174.646C177.211 174.646 182.572 169.166 182.661 162.397C182.664 162.39 182.665 162.382 182.667 162.374C182.684 162.331 182.694 162.285 182.696 162.238C182.694 162.191 182.684 162.145 182.667 162.102C182.591 155.322 177.219 149.835 170.582 149.835ZM170.582 150.633C176.846 150.633 181.917 155.822 181.917 162.238C181.917 168.654 176.846 173.849 170.582 173.849C164.319 173.849 159.253 168.654 159.253 162.238C159.253 155.822 164.319 150.633 170.582 150.633Z" fill="#141111"/>
</g>
</svg>